<svg id="Ebene_1" data-name="Ebene 1" xmlns="http://www.w3.org/2000/svg" viewBox="0 0 200.01 200"><defs><style>.cls-1{isolation:isolate;}.cls-2{fill:#754b25;}.cls-3{fill:#704823;}.cls-4{fill:#774d26;}.cls-5{fill:#795422;}.cls-6{fill:#236a2f;}.cls-7{fill:#8b6129;}.cls-8{fill:#2c8535;}.cls-9{fill:#2f8131;}.cls-10{fill:#3cac4f;}.cls-11{fill:#bababa;}.cls-12{fill:#a8a7a7;}</style></defs><title>Zeichenfläche 8</title><g class="cls-1"><polygon class="cls-2" points="185.46 85.9 185.34 130.68 100.98 179.71 101.11 134.92 185.46 85.9"/><polygon class="cls-3" points="101.11 134.92 100.98 179.71 16.07 130.69 16.2 85.9 101.11 134.92"/><polygon class="cls-4" points="185.46 85.9 101.11 134.92 16.2 85.9 100.55 36.88 185.46 85.9"/></g><path class="cls-5" d="M16.18,85.9l-.05,20.55s4.33.16,12.68,4.34c4.76,2.37,2,12.14,5.14,14.33,2.81,2,8.27-.77,12.47,3,3.21,2.92,7,10.29,10.29,11.77,6.49,2.94,8.86,1.34,12.39,2.57,4.77,1.66,9.12,8.57,14,10.05,2.85.88,6.45-.25,9.31.59,3.31,1,7.72,4.38,8.72,3.7V134.93Z"/><path class="cls-6" d="M16.18,85.86l0,17s2.16-3.82,5-3.31l1.91,2.33a2.42,2.42,0,0,1,2.9-1.24l1,3c2.1-2.56,7.8.39,7.8.39s.59,3.7-1.11,6.07c0,0,5.29-1.39,6.49-.29l.33,7.68s2.68-3.64,4.55-2.89L47.55,121A5.09,5.09,0,0,0,52,119.67l-1.72,6.22,3.86-2.5s3.79,2.24,3.83,6.33c0,0,7.63-7.53,10.22-6.08,1.35.76.06,6.2.06,6.2h9.47c3.51,1,.7,9.7.7,9.7l6.72-4.62c1.24.58.53,5.45.53,5.45,3.39-3.46,8.65-2.17,8.65-2.17l.48,6.86c3.26-4.57,6.29-.18,6.29-.18v-10Z"/><path class="cls-7" d="M185.47,85.89l-.07,20.53s2.12,4.62-6.23,8.8c-4.75,2.37-7.29,7.09-10.4,9.28-2.81,2-7.55,2.92-10.52,4.64-3.75,2.17-9,8.69-12.24,10.17-6.49,2.93-9.94-1.23-13.48,0-4.77,1.66-3,5.84-7.79,7.32a86.2,86.2,0,0,1-12.39,2.65c-5.14.47-8.91,7.71-11.27,7.56l0-21.91Z"/><path class="cls-8" d="M185.5,85.89l-.08,7v8.44c-1.08-4.15-5.31,2.73-5.31,2.73s-5.7-4-3.55,2.49a4.27,4.27,0,0,0-5.07-.89c-1.18.65-2.69,5.31-2.69,5.31s-1.32-6.24-5.14-3.72c-1.38.92-1.24,6.54-1.24,6.54L156.07,110c-1.65.91-.17,7.52-.17,7.52s-1.93-.34-2.56-.51c-4-1.06-3.13,5.25-3.13,5.25-2.12.67-8.09-3.61-8.09-3.61-1.72.74-2.46,7.07-2.46,7.07-2-3.78-8.06-4.36-8.06-4.36l-1.73,6.15a5.34,5.34,0,0,0-5.36-.76l-1.64,7.64c-.83-2.46-4.83-3-4.83-3l-2,9.38c-.62-2-4-3-5.45-2.72-2.87.51-1.4,4.9-1.4,4.9l-5.7-4.47c-1.43.89-2.43,6.31-2.43,6.31l0-9.91Z"/><polygon class="cls-9" points="185.46 85.75 101.09 134.78 16.18 85.75 100.54 36.73 185.46 85.75"/><path class="cls-10" d="M104.23,120.75c.85-.85,0-4.27,0-4.27.24.5-1.11,3.41-1.11,3.41.71-1.33-.54-5.22-.54-5.22.7,2.65-1.69,5.22-1.69,5.22s-1.56-4.87-1.1-6.63c0,0-1.46,5.79-.46,7.49,0,0-2.28-2.52-2.11-3.16,0,0-.5,3,.26,3.83"/><path class="cls-10" d="M56.42,89.16c.85-.85,0-4.27,0-4.27.23.5-1.11,3.41-1.11,3.41.7-1.33-.55-5.22-.55-5.22.7,2.65-1.69,5.22-1.69,5.22s-1.56-4.87-1.1-6.62c0,0-1.46,5.78-.46,7.48,0,0-2.28-2.52-2.11-3.16,0,0-.49,3,.27,3.83"/><path class="cls-10" d="M157.34,91.77c.85-.85,0-4.26,0-4.26.23.49-1.11,3.4-1.11,3.4.7-1.32-.55-5.22-.55-5.22.7,2.65-1.69,5.22-1.69,5.22s-1.56-4.87-1.09-6.62c0,0-1.47,5.79-.47,7.48,0,0-2.28-2.51-2.11-3.15,0,0-.49,3,.27,3.82"/><path class="cls-10" d="M100.45,50.68c.84-.84,0-4.26,0-4.26.23.49-1.11,3.41-1.11,3.41.7-1.33-.55-5.23-.55-5.23.71,2.65-1.69,5.23-1.69,5.23S95.51,45,96,43.2c0,0-1.46,5.79-.47,7.48,0,0-2.28-2.51-2.1-3.15,0,0-.5,3,.26,3.82"/><path class="cls-10" d="M123.6,85.08c.84-.85,0-4.27,0-4.27.23.5-1.11,3.41-1.11,3.41.7-1.32-.55-5.22-.55-5.22.7,2.65-1.69,5.22-1.69,5.22s-1.56-4.87-1.09-6.62c0,0-1.46,5.78-.47,7.48,0,0-2.28-2.51-2.11-3.16,0,0-.49,3,.27,3.83"/><path class="cls-11" d="M105.45,161a4.89,4.89,0,0,0,0,4.41c.86,1.47,6.39-.42,6.78-.58,1.06-.43.47-4.09.47-4.44,0-.86-1.85-3.75-2.92-3.42A16,16,0,0,0,105.45,161Z"/><path class="cls-11" d="M121.82,155.67a4,4,0,0,0-1.64,2.57,2.16,2.16,0,0,0,1.64,1.41,7.05,7.05,0,0,0,3.39-2c.34-.53.89-2,.47-2.46C125,154.49,122.67,155.2,121.82,155.67Z"/><path class="cls-11" d="M135.45,151.41c-1.31-.74-5.1,1.64-5.14,3.15,0,1,2.29,2.32,3.27,2.22.66-.06,1.62-1.26,1.87-1.87C135.79,154.1,136.22,151.83,135.45,151.41Z"/><path class="cls-11" d="M138.24,141.35c-1.32-.73-5.11,1.65-5.14,3.16,0,1,3.36,3.25,4.34,3.16.66-.06,1.62-1.26,1.87-1.87C139.65,145,139,141.78,138.24,141.35Z"/><path class="cls-11" d="M143.87,143.75c-.52.27-.71,1.28-.88,1.85-.31,1.1.89,3.8,2,4.11,2.87.81,9.82-3.47,10.05-6.45.11-1.4-2.83-4-4.2-3.72-1,.22-1.41.38-4,2.05C145.51,142.4,144.8,143.27,143.87,143.75Z"/><path class="cls-11" d="M162.92,130.77c-1.07-.37-3.68-.73-4.55,0s-.73,4.16,0,5.26,3.34,2.26,4.55,2c1.43-.31,4.56-2.17,4.56-3.62S164.3,131.25,162.92,130.77Z"/><path class="cls-11" d="M172.22,126.27c-.45.14-1.13,2.63-1.35,3.19a1.49,1.49,0,0,0,.94,1.76c.93.46,1.73-.66,2-1.17.34-.67,2.81-1,2.75-2.26C176.52,127.24,175.43,125.28,172.22,126.27Z"/><path class="cls-11" d="M180.93,118c-1,.55.09,4,1.16,4.33.6.18,1.62-1.07,1.87-1.64s.63-2.44,0-2.69-1-.87-1.53-.87S181.41,117.76,180.93,118Z"/><path class="cls-12" d="M86,161.15c-1.14.41-4,1.87-3.74,3,.29,1.65,4.75,2.81,6.31,2.23a4.56,4.56,0,0,0,2-3.51c-.08-.62-1.18-1.53-1.75-1.77A5.36,5.36,0,0,0,86,161.15Z"/><path class="cls-12" d="M74.66,155.89c-.54.46-1.55,2-1.17,2.58.52.81,3,.41,3.86,0s2.21-1.75,2.1-2.58c0-.39-.89-.86-1.29-.93A5.78,5.78,0,0,0,74.66,155.89Z"/><path class="cls-12" d="M60.79,148.31c-1.23.4-4.32,1.74-4.21,3s3.72,2.5,5.15,2.45A6.24,6.24,0,0,0,65,151.93a2.6,2.6,0,0,0,.58-1.75c-.3-.84-2.18-1.63-3-1.87A4,4,0,0,0,60.79,148.31Z"/><path class="cls-12" d="M49.31,137.44c-.93.51-1.32,3.57-.47,4.2.54.4,2.09-.49,2.45-1a2.81,2.81,0,0,0,0-2.22C51,137.91,49.79,137.17,49.31,137.44Z"/><path class="cls-12" d="M54.68,146.55c-.44-.73-3.09-.33-3.39.47-.21.59,1.07,1.91,1.7,1.87S55.05,147.17,54.68,146.55Z"/><path class="cls-12" d="M69.76,144.88c-.92-.42-3.52-.18-4,.72-.86,1.74,1.71,6.19,3.5,6.92,1,.41,3.78-.43,4.15-1.47C74.06,149.36,71.4,145.62,69.76,144.88Z"/><path class="cls-12" d="M34.93,129.72c-1.18.13-3.79,1.4-4,2.57-.36,2.32,3.63,7,6,7.25,1.26.14,3.31-2.08,4-3.16.57-.88,1.52-3.15,1-4.09C41.07,130.64,36.78,129.51,34.93,129.72Z"/><path class="cls-12" d="M24.76,119.32A6.19,6.19,0,0,0,20,120.55c-.5.5.23,4.5,1.4,5.14s3.88-.68,5-1.28c.82-.43,3-1.39,2.46-2.75C28.73,121.2,25.77,119.53,24.76,119.32Z"/><path class="cls-12" d="M23.36,129.72c-.77-.06-2.73.52-2.81,1.29s1.93,2.08,2.81,2.1,2.57-.92,2.57-1.69S24.12,129.78,23.36,129.72Z"/></svg>